<svg xmlns="http://www.w3.org/2000/svg" xmlns:xlink="http://www.w3.org/1999/xlink"><symbol viewBox="0 0 32 32" id="chevron-left"><path d="M18.695 5.713c-.784.765-8.445 8.81-8.445 8.81-.418.408-.627.943-.627 1.477s.208 1.07.627 1.478c0 0 7.66 8.044 8.445 8.807.784.765 2.195.818 3.03 0 .836-.816.9-1.955 0-2.954L14.695 16l7.03-7.33c.9-1.003.835-2.14 0-2.957-.838-.816-2.25-.765-3.03 0z"/></symbol><symbol viewBox="0 0 32 32" id="chevron-right"><path d="M13.305 5.713c.784.765 8.445 8.81 8.445 8.81.42.408.628.943.628 1.477s-.208 1.07-.628 1.478c0 0-7.66 8.044-8.445 8.807-.784.765-2.193.818-3.03 0-.838-.816-.903-1.955 0-2.954l7.03-7.33-7.03-7.33c-.9-1.002-.836-2.14 0-2.956s2.248-.765 3.03 0z"/></symbol><symbol viewBox="0 0 32 32" id="chevron-up"><path d="M26.285 18.696c-.764-.784-8.807-8.445-8.807-8.445-.41-.416-.944-.626-1.478-.626-.537 0-1.07.21-1.478.628 0 0-8.044 7.662-8.81 8.446-.762.784-.815 2.195 0 3.03.82.836 1.958.903 2.957 0L16 14.7l7.33 7.03c1 .9 2.14.834 2.955 0 .818-.84.767-2.25 0-3.032z"/></symbol><symbol viewBox="0 0 32 32" id="clipboard"><path d="M26 4v24H6V4H2v24c0 2.2 1.8 4 4 4h20c2.2 0 4-1.8 4-4V4h-4zm-6 0V2c0-1.1-.9-2-2-2h-4c-1.1 0-2 .9-2 2v2H8v4h16V4h-4zm-2 0h-4V2h4v2z"/><path d="M13.5 24.7l-5.4-7.1 2.4-2.5 3 3.8 9.5-7.7 1.2 1.2-10.7 12.3z"/></symbol><symbol viewBox="0 0 32 32" id="chats"><path d="M9.28 19.52V9.6H3.2C1.44 9.6 0 11.04 0 12.8v9.6c0 1.76 1.44 3.2 3.2 3.2h1.6v4.8l4.8-4.8h8c1.76 0 3.2-1.44 3.2-3.2v-2.912c-.102.022-.21.034-.32.034H9.28zM28.8 1.6H14.4c-1.76 0-3.2 1.44-3.2 3.2v12.8h11.2l4.8 4.8v-4.8h1.6c1.76 0 3.2-1.44 3.2-3.2V4.8c0-1.76-1.44-3.2-3.2-3.2z"/></symbol><symbol viewBox="0 0 32 32" id="cog"><path d="M26.856 16c0-1.677 1.032-3 2.584-3.91-.282-.933-.65-1.83-1.106-2.674-1.744.456-3.154-.227-4.338-1.41-1.187-1.187-1.55-2.598-1.094-4.34-.843-.455-1.738-.828-2.675-1.106-.91 1.554-2.552 2.586-4.227 2.586s-3.317-1.032-4.227-2.586c-.938.278-1.832.65-2.675 1.106.454 1.742.093 3.154-1.093 4.34C6.82 9.188 5.408 9.87 3.667 9.416c-.456.843-.827 1.74-1.107 2.675C4.114 13 5.146 14.324 5.146 16c0 1.675-1.032 3.318-2.586 4.23.28.935.65 1.83 1.107 2.674 1.742-.456 3.152-.093 4.338 1.093s1.547 2.595 1.093 4.338c.843.456 1.74.83 2.675 1.107.91-1.555 2.552-2.586 4.227-2.586s3.32 1.032 4.23 2.586c.937-.28 1.83-.65 2.674-1.107-.456-1.742-.094-3.152 1.094-4.338 1.184-1.184 2.594-1.867 4.338-1.413.456-.843.826-1.74 1.106-2.675-1.553-.91-2.585-2.235-2.585-3.91zM16 21.845c-3.227 0-5.843-2.618-5.843-5.845s2.616-5.845 5.843-5.845c3.23 0 5.845 2.618 5.845 5.845S19.23 21.845 16 21.845z"/></symbol><symbol viewBox="0 0 32 32" id="eye"><path d="M16 6C9.02 6 2.972 10.064 0 16c2.972 5.936 9.02 10 16 10s13.027-4.064 16-10c-2.972-5.936-9.02-10-16-10zm7.89 14.697C21.526 22.204 18.8 23 16 23s-5.527-.796-7.89-2.303c-1.88-1.2-3.47-2.805-4.67-4.697 1.198-1.89 2.79-3.498 4.67-4.697.123-.078.247-.154.372-.228C8.172 11.93 8 12.85 8 13.812c0 4.418 3.582 8 8 8s8-3.582 8-8c0-.962-.17-1.883-.482-2.737.124.074.248.15.37.228 1.88 1.2 3.474 2.805 4.67 4.697-1.196 1.89-2.79 3.498-4.67 4.697z"/></symbol><symbol viewBox="0 0 32 32" id="heart"><path d="M29.51 4.49c-3.32-3.32-8.7-3.32-12.02 0-.61.608-1.105 1.286-1.49 2.007-.386-.72-.883-1.4-1.49-2.007-3.32-3.32-8.702-3.32-12.022 0s-3.32 8.7 0 12.02L15.998 30l13.51-13.49c3.32-3.318 3.32-8.7 0-12.02z"/></symbol><symbol viewBox="0 0 32 32" id="user"><path d="M23.712 23.117c-3.944-1.437-5.205-2.65-5.205-5.246 0-1.556 1.205-1.05 1.733-3.902.22-1.184 1.283-.02 1.488-2.722 0-1.077-.58-1.346-.58-1.346s.295-1.596.41-2.822c.14-1.53-.883-5.478-6.358-5.478-5.474 0-6.5 3.95-6.357 5.478.115 1.226.41 2.82.41 2.82s-.58.268-.58 1.347c.202 2.702 1.266 1.538 1.485 2.722.53 2.854 1.734 2.346 1.734 3.904 0 2.6-1.26 3.81-5.205 5.248C2.73 24.558.16 26.028.16 27.03v3.37h30.08v-3.37s-2.572-2.47-6.53-3.913z"/></symbol></svg>